<?xml version="1.0" encoding="UTF-8" standalone="no"?>
<svg
   id="Capa_1"
   data-name="Capa 1"
   viewBox="0 0 500 500"
   version="1.1"
   sodipodi:docname="rand.svg"
   inkscape:version="1.1.1 (3bf5ae0d25, 2021-09-20)"
   xmlns:inkscape="http://www.inkscape.org/namespaces/inkscape"
   xmlns:sodipodi="http://sodipodi.sourceforge.net/DTD/sodipodi-0.dtd"
   xmlns="http://www.w3.org/2000/svg"
   xmlns:svg="http://www.w3.org/2000/svg"
   xmlns:rdf="http://www.w3.org/1999/02/22-rdf-syntax-ns#"
   xmlns:cc="http://creativecommons.org/ns#"
   xmlns:dc="http://purl.org/dc/elements/1.1/">
  <sodipodi:namedview
     id="namedview35"
     pagecolor="#ffffff"
     bordercolor="#666666"
     borderopacity="1.0"
     inkscape:pageshadow="2"
     inkscape:pageopacity="0.0"
     inkscape:pagecheckerboard="0"
     showgrid="false"
     inkscape:zoom="1.22"
     inkscape:cx="249.59016"
     inkscape:cy="250.40984"
     inkscape:window-width="1440"
     inkscape:window-height="837"
     inkscape:window-x="-8"
     inkscape:window-y="-8"
     inkscape:window-maximized="1"
     inkscape:current-layer="g32" />
  <defs
     id="defs4">
    <style
       id="style2">
      .cls-1 {
        fill: #fff;
      }
    </style>
  </defs>
  <title
     id="title6">rand</title>
  <g
     id="g32">
    <path
       d="M248.08,8c9.78,3.84,19.14,6.44,27.38,10.91q85.2,46.33,170,93.37c22.47,12.46,22.69,19.36.76,31.57C389,175.68,331.56,207,274.31,238.7c-18.6,10.29-36.51,9.56-54.92-.67-56.49-31.41-113.25-62.35-169.73-93.77C27.26,131.8,27.1,124.82,49,112.69Q134.8,65.08,221.09,18.25C229.29,13.8,238.76,11.47,248.08,8Z"
       id="path8" />
    <path
       d="M478.86,267.22c0,26.14-.41,52.3.12,78.44.45,22.13-8.59,37.84-29.29,48.93C395.5,423.62,342,453.74,288,483.12c-23,12.51-29.54,8.67-29.66-17.31-.24-53.83.27-107.67-.23-161.49-.21-22.2,8.72-37.91,29.28-49C340.8,226.61,393.71,197,447,167.94c25.83-14.1,31.61-10.7,31.85,18.53C479,213.38,478.86,240.3,478.86,267.22ZM349.73,359.58"
       id="path10" />
    <path
       d="M237.47,383.75c0,27.68.26,55.36-.07,83-.29,24.37-7.18,28.61-28.44,17-55.39-30.11-110.44-60.78-165.79-91C25.24,383.08,17,368.76,17,349.33c.14-56.12-.27-112.25.21-168.38.19-22.67,7-26.15,28.21-14.66,55.43,30.05,110.48,60.72,165.83,90.89,17.93,9.77,26.25,24.2,26.2,43.53C237.42,328.39,237.47,356.07,237.47,383.75Z"
       id="path12" />
    <g
       id="g18">
      <ellipse
         class="cls-1"
         cx="372"
         cy="392.75"
         rx="25.73"
         ry="15.54"
         transform="translate(-166.39 445.47) rotate(-52.15)"
         id="ellipse14" />
      <path
         class="cls-1"
         d="M372,242.09c-28.67,14.61-52,49.82-52,78.49v5l40-20.38v-5c0-6.62,5.38-14.74,12-18.11s12-.74,12,5.88c0,3.53-1.55,7.65-4.25,11.32L352,337v35.91l40-20.38V335.14l13.66-18.57c11.65-15.84,18.34-33.7,18.34-49C424,238.92,400.67,227.48,372,242.09Z"
         id="path16" />
    </g>
    <g
       id="g24">
      <ellipse
         class="cls-1"
         cx="117"
         cy="390.75"
         rx="11.71"
         ry="30.22"
         transform="translate(-171.91 102.81) rotate(-28.43)"
         id="ellipse20" />
      <path
         class="cls-1"
         d="M117,240.09c-25.36-26.34-46-24.45-46,4.23v5l35.38,36.74v-5c0-6.61,4.77-7.05,10.62-1s10.62,16.4,10.62,23c0,3.53-1.37,5.44-3.76,5.26l-24.55-1.9v35.91l35.38,36.75V361.71l12.08.93c10.32.8,16.23-7.5,16.23-22.79C163,311.18,142.36,266.43,117,240.09Z"
         id="path22" />
    </g>
    <g
       id="g30">
      <ellipse
         class="cls-1"
         cx="304.1"
         cy="170.87"
         rx="28.72"
         ry="19.42"
         transform="translate(-35.45 250.76) rotate(-42.57)"
         id="ellipse26" />
      <path
         class="cls-1"
         d="M190.5,77.47c-28.4,29.67-33.92,68.27-12.3,86l3.77,3.1,39.62-41.39-3.77-3.1c-5-4.1-3.71-13,2.84-19.85s15.94-9.08,20.93-5c2.66,2.19,3.65,5.86,2.7,10.07l-9.7,43.35L261.67,173l39.62-41.39-13.13-10.8,4.77-21.33c4.08-18.2-.19-34.07-11.72-43.55C259.6,38.13,218.9,47.8,190.5,77.47Z"
         id="path28" />
    </g>
    <path
       style="fill:#000000;stroke-width:0.819672"
       d="M 219.2623,487.85786 C 216.33197,486.8041 207.66393,482.50746 200,478.30977 175.67453,464.98622 53.619379,397.92973 45.081967,393.19857 c -9.945708,-5.51159 -19.30239,-14.40132 -22.766051,-21.62991 -4.899853,-10.22591 -4.754358,-6.71882 -4.508215,-108.66859 0.247491,-102.50799 -0.04479,-96.78757 5.154331,-100.8772 4.592724,-3.61264 10.206579,-1.80691 33.185509,10.67432 14.983766,8.13858 106.993329,58.60775 146.675889,80.45479 17.04946,9.3865 23.81105,15.06417 28.45943,23.8972 5.97324,11.35057 5.60239,4.26988 5.60239,106.96721 0,84.87278 -0.11214,92.575 -1.40879,96.75927 -2.58041,8.32698 -7.17359,10.33324 -16.21416,7.0822 z M 132.82414,416.4307 c 1.71287,-1.71286 2.01048,-2.77895 2.0022,-7.17213 -0.0347,-18.3874 -17.69323,-45.73398 -29.53191,-45.73398 -3.89094,0 -5.63034,1.97508 -6.217307,7.05971 -1.86025,16.1146 17.863047,47.72072 29.853577,47.83966 1.03483,0.0102 2.78688,-0.88671 3.89344,-1.99326 z m 2.01193,-45.75468 v -8.42235 l 8.47677,0.31379 c 9.61194,0.3558 12.18765,-0.46934 15.55973,-4.98463 3.29547,-4.41271 4.2346,-8.49428 4.1965,-18.23857 -0.0621,-15.89191 -5.13288,-33.87351 -15.48672,-54.91803 -15.92225,-32.36254 -38.20373,-57.16308 -56.063201,-62.40152 -12.763574,-3.74374 -20.634707,4.41588 -20.606501,21.36177 L 70.923656,250 88.31851,268.03279 c 9.56717,9.91803 17.67697,18.15573 18.02178,18.30601 0.34481,0.15027 0.62692,-1.57543 0.62692,-3.8349 0,-7.42701 3.28867,-8.18417 9.32575,-2.14709 6.77108,6.77108 12.28855,20.27261 10.35874,25.34837 l -0.87952,2.31334 -7.55822,-0.54035 c -4.15703,-0.29719 -10.2324,-0.76903 -13.50085,-1.04855 l -5.942618,-0.50819 0.01967,18.35076 0.01967,18.35076 17.398388,18.15569 c 9.56912,9.98563 17.67503,18.1926 18.01315,18.2377 0.33811,0.0451 0.61475,-3.70804 0.61475,-8.34032 z"
       id="path150" />
    <path
       style="fill:#ffffff;stroke-width:0.819672"
       d="m 219.2623,487.85371 c -5.32634,-1.91952 -12.05468,-5.55256 -122.508407,-66.14973 l -58.98381,-32.35972 -6.620552,-6.55737 c -7.280434,-7.21096 -10.243125,-12.32697 -12.316916,-21.26899 -1.088636,-4.6941 -1.220943,-17.42479 -1.024914,-98.61783 0.247491,-102.50799 -0.04479,-96.78757 5.154331,-100.8772 4.775666,-3.75654 10.238317,-1.84282 38.152984,13.36605 25.079249,13.66404 131.384664,71.99824 145.967484,80.09842 16.38361,9.10046 23.75945,17.15752 27.99285,30.57823 l 1.8099,5.73771 v 92.21311 c 0,84.87278 -0.11214,92.575 -1.40879,96.75927 -2.5811,8.32922 -7.17627,10.33517 -16.21416,7.07805 z M 132.82414,416.4307 c 1.69654,-1.69654 2.01193,-2.79604 2.01193,-7.01409 0,-7.18741 -1.23329,-11.52473 -6.17358,-21.71169 -7.14574,-14.73466 -16.30856,-24.18033 -23.45625,-24.18033 -4.51987,0 -6.063773,2.67266 -5.903527,10.21964 0.362779,17.08492 18.515027,44.4482 29.627987,44.66216 1.03483,0.0199 2.78688,-0.86914 3.89344,-1.97569 z m 10.84918,-53.87029 c 8.10589,0.2672 9.00768,0.14129 11.65455,-1.62721 1.79577,-1.19983 3.78864,-3.75638 5.32787,-6.83484 2.31224,-4.62447 2.45728,-5.48068 2.42992,-14.34426 -0.05,-16.19095 -4.76385,-33.16552 -15.13707,-54.5082 -14.40275,-29.63338 -33.88664,-52.91762 -51.17137,-61.15242 -6.670269,-3.17785 -11.092986,-3.73848 -15.67817,-1.98738 -6.815181,2.60274 -10.197628,9.65544 -10.19712,21.26188 l 2.89e-4,6.63202 17.989028,18.44262 17.989023,18.44263 0.0434,-4.24473 c 0.0775,-7.56971 3.29819,-8.35473 9.36922,-2.28371 6.77108,6.77108 12.28855,20.27261 10.35874,25.34837 l -0.87952,2.31334 -7.55822,-0.54035 c -4.157,-0.29719 -10.23237,-0.76903 -13.50082,-1.04855 l -5.942618,-0.50819 0.01402,18.35076 0.01402,18.35076 17.813878,18.37788 17.81387,18.37787 0.2307,-8.55395 0.23069,-8.55394 8.7857,0.2896 z"
       id="path226" />
    <path
       style="fill:#000000;stroke-width:0.819672"
       d="m 116.60243,359.52377 -17.00412,-17.72049 -0.0041,-17.53122 -0.0041,-17.53123 5.12295,0.49805 c 2.81763,0.27392 8.83895,0.74198 13.38072,1.04013 l 8.25777,0.54208 1.03545,-2.49982 c 3.33531,-8.05201 -9.18109,-30.5016 -17.00562,-30.5016 -3.06459,0 -4.05812,1.25173 -4.3824,5.52133 l -0.26128,3.43999 -17.008195,-17.76823 -17.008197,-17.76822 v -5.82596 c 0,-14.30767 6.699734,-22.92517 16.531873,-21.26405 8.283432,1.39948 17.186629,7.21388 27.806839,18.15977 11.99935,12.36734 21.2109,25.58486 29.85783,42.84255 10.80667,21.56815 16.20699,40.02835 16.31707,55.77758 0.0757,10.83777 -1.46789,15.81102 -6.24803,20.12959 l -3.34162,3.01896 -9.28746,-0.3555 -9.28745,-0.3555 -0.2319,7.93614 -0.2319,7.93615 z"
       id="path302" />
    <path
       style="fill:#000000;stroke-width:0.819672"
       d="m 125.86369,416.71821 c -14.30626,-5.71364 -31.762069,-42.40551 -24.16677,-50.79822 8.18789,-9.04752 32.31947,22.80745 32.31947,42.66343 0,4.2324 -0.31419,5.32988 -2.01192,7.02761 -2.176,2.176 -3.0638,2.33607 -6.14078,1.10718 z"
       id="path378" />
    <path
       style="fill:#000000;stroke-width:0.819672"
       d="m 248.27893,161.39563 -13.1965,-11.0367 4.76768,-21.0811 c 5.47808,-24.22226 5.84096,-28.44518 2.71307,-31.573074 -8.58174,-8.581733 -28.21892,3.814164 -28.21892,17.813084 0,2.85121 1.29494,5.28275 4.17677,7.84282 l 2.30674,2.04918 -19.43028,20.2206 -19.43028,20.22062 -3.27869,-2.68155 c -18.20422,-14.88874 -17.2995,-44.84197 2.21066,-73.190012 8.67985,-12.611714 24.92345,-26.668145 39.0004,-33.749064 31.62102,-15.905854 61.77792,-9.460371 71.6162,15.306643 1.5904,4.003707 1.86333,6.196257 1.85956,14.938333 -0.004,8.704034 -0.39992,11.88916 -2.63251,21.16556 -1.44544,6.00581 -2.62808,11.54682 -2.62808,12.31335 0,0.76653 2.78418,3.71713 6.18707,6.5569 l 6.18707,5.16321 -13.3592,13.93373 c -7.34756,7.66354 -16.12559,16.83408 -19.50674,20.37895 l -6.14754,6.44523 z"
       id="path417" />
    <path
       style="fill:#000000;stroke-width:0.819672"
       d="m 289.315,193.6349 c -3.81076,-1.54979 -5.78574,-3.22348 -7.76777,-6.58277 -1.51397,-2.566 -1.75618,-3.97893 -1.47188,-8.58636 0.68277,-11.06541 9.08006,-22.22327 21.01391,-27.92213 5.38657,-2.57229 7.11017,-3.00266 12.02549,-3.00266 6.88145,0 10.57194,1.88891 13.3509,6.8334 6.06232,10.78645 -3.35918,28.9152 -19.05995,36.67494 -6.6582,3.29066 -13.83488,4.31638 -18.0907,2.58558 z"
       id="path456" />
    <path
       style="fill:#000000;stroke-width:0.819672"
       d="m 352.0706,354.71311 0.0214,-17.00819 14.7949,-20.08197 c 8.1372,-11.04508 15.32019,-21.32578 15.96219,-22.846 1.3749,-3.25564 1.53086,-9.36933 0.29778,-11.67335 -2.32058,-4.33605 -9.78017,-3.51291 -15.74482,1.73739 -4.43902,3.90738 -7.39113,9.78893 -7.81443,15.56885 l -0.33016,4.50819 -19.71071,10.15023 -19.71071,10.15023 0.55903,-6.4617 c 1.45253,-16.78944 7.74747,-32.39686 19.28986,-47.82654 15.64532,-20.91439 37.5059,-34.45484 55.62613,-34.45484 7.98041,0 13.43716,1.9601 18.6047,6.68294 5.98043,5.46578 8.71568,11.78585 9.26419,21.40585 1.02143,17.91416 -5.33047,34.24493 -22.49984,57.84726 l -9.28668,12.76618 v 8.64879 8.6488 l -19.26682,9.62304 c -10.59675,5.29267 -19.44921,9.62304 -19.67213,9.62304 -0.22292,0 -0.39567,-7.65369 -0.38389,-17.0082 z"
       id="path495" />
    <path
       style="fill:#000000;stroke-width:0.819672"
       d="m 356.16176,412.02557 c -3.22347,-3.22347 -4.23082,-7.38573 -3.17847,-13.13312 2.50953,-13.70581 16.76217,-27.99081 27.92739,-27.99081 3.35501,0 4.41029,0.42262 7.01119,2.80783 3.03891,2.7869 3.06164,2.85565 3.0483,9.22131 -0.0118,5.64623 -0.34901,7.08561 -2.81856,12.0318 -5.5365,11.0889 -16.34478,19.38168 -25.26085,19.38168 -3.74813,0 -4.75844,-0.34813 -6.729,-2.31869 z"
       id="path534" />
    <path
       style="fill:#ececec;stroke-width:0.819672"
       d="m 265.30769,488.77089 c -2.66544,-1.34464 -4.87532,-6.10173 -5.8897,-12.67844 -0.57685,-3.73998 -0.78705,-35.28288 -0.63271,-94.94491 l 0.23111,-89.34426 2.26972,-6.41626 c 3.67348,-10.38451 8.85416,-17.34054 18.06841,-24.26019 2.33862,-1.75625 14.94876,-8.99086 28.02253,-16.07693 13.07377,-7.08606 49.91699,-27.2617 81.87383,-44.83475 65.29564,-35.90606 71.25821,-38.96675 77.30721,-39.68317 3.93786,-0.46638 4.43154,-0.32419 6.67958,1.92385 4.7529,4.7529 4.57304,1.00348 4.83786,100.853 0.27179,102.47633 0.5122,97.57725 -5.33451,108.70356 -3.28668,6.25456 -9.73727,13.36986 -15.97829,17.62477 -2.14116,1.45976 -14.49771,8.40358 -27.45902,15.43072 -12.9613,7.02713 -45.51273,24.85013 -72.3365,39.60667 -81.46479,44.81616 -79.80502,43.95595 -86.17334,44.66109 -1.96941,0.21806 -4.4382,-0.0361 -5.48618,-0.56475 z m 106.68283,-75.62512 c 9.9925,-4.72721 19.40709,-18.24081 20.08097,-28.82402 0.39224,-6.15995 -0.69432,-9.31968 -4.22701,-12.29225 -2.22927,-1.8758 -3.08298,-2.08059 -7.47566,-1.79328 -6.50921,0.42576 -11.78729,3.13371 -17.66471,9.06302 -11.55348,11.65549 -14.71704,29.1329 -6.21205,34.31923 3.67534,2.24122 10.18114,2.0428 15.49846,-0.4727 z m 0.14063,-49.89803 19.67213,-10.0799 0.23261,-8.75223 0.23261,-8.75222 8.52667,-11.6435 c 9.83636,-13.43194 14.4575,-21.19108 18.17142,-30.51074 6.31346,-15.84295 6.95864,-33.41811 1.60652,-43.76304 -2.27254,-4.39253 -7.05401,-9.14516 -11.5047,-11.43531 -5.47048,-2.81489 -16.40672,-3.48813 -24.2693,-1.49403 -25.32245,6.42225 -51.56105,33.15515 -61.41519,62.57219 -2.50165,7.46802 -5.08161,24.92428 -3.8637,26.14219 0.30752,0.30752 9.55343,-4.01925 20.54647,-9.61504 l 19.98733,-10.17418 0.40877,-5.09244 c 1.04786,-13.05406 15.69427,-24.53756 21.84442,-17.12708 0.73237,0.88245 0.97049,2.785 0.72264,5.77376 -0.44036,5.31022 -0.46969,5.3575 -18.40895,29.67958 l -13.39139,18.15609 v 18.11441 c 0,9.96292 0.27664,18.10698 0.61475,18.0979 0.33812,-0.009 9.46722,-4.55247 20.28689,-10.09641 z"
       id="path573" />
    <path
       style="fill:#ececec;stroke-width:0.819672"
       d="m 265.06888,488.15832 c -0.72851,-0.45195 -2.20392,-2.76754 -3.27869,-5.14576 l -1.95412,-4.32404 -0.22192,-93.38074 -0.22192,-93.38075 2.17749,-5.79958 c 4.96976,-13.23659 12.23857,-21.35406 26.61516,-29.72259 14.21755,-8.27596 146.09233,-80.38215 160.61756,-87.82211 10.94036,-5.60375 14.43137,-7.01633 18.08976,-7.31971 4.2716,-0.35423 4.65715,-0.22864 6.6807,2.17622 1.23214,1.46431 2.43069,4.21003 2.81189,6.44169 0.36541,2.13925 0.66439,45.56987 0.66439,96.51249 0,73.67297 -0.21943,93.46145 -1.07256,96.72131 -2.56523,9.80211 -12.3766,21.85462 -22.83426,28.05016 -8.84789,5.24184 -156.08276,85.90473 -167.67466,91.86086 -8.11225,4.16822 -11.39523,5.42714 -14.7541,5.65771 -2.37608,0.16311 -4.91621,-0.0732 -5.64472,-0.52516 z m 107.4721,-74.83449 c 5.37035,-2.52794 13.22624,-10.86445 16.49491,-17.50408 2.18351,-4.43532 2.81564,-6.83244 3.05578,-11.5878 0.52379,-10.37254 -2.37851,-14.15551 -10.84975,-14.14197 -6.32314,0.0101 -12.03916,2.54692 -17.72739,7.8676 -12.11182,11.32919 -15.99786,28.9539 -7.80494,35.39845 3.08846,2.42939 11.63674,2.41304 16.83139,-0.0322 z m -0.0669,-49.76579 19.59216,-9.80262 0.27833,-8.84492 0.27836,-8.84493 7.4354,-10.2459 c 12.8766,-17.7438 16.64981,-24.39869 21.04227,-37.11269 2.49046,-7.20864 2.613,-8.149 2.64077,-20.26436 0.0276,-12.0604 -0.081,-12.93977 -2.14136,-17.33439 -2.52692,-5.38979 -7.35683,-10.52138 -12.34471,-13.11576 -4.37029,-2.27315 -17.28682,-3.08442 -24.34731,-1.52923 -23.64202,5.20755 -50.85341,32.1571 -60.99918,60.41218 -2.04687,5.70035 -3.98882,14.91162 -5.02508,23.83547 -0.40045,3.4485 -0.24773,4.41477 0.75879,4.80101 0.72885,0.27969 9.42096,-3.61415 20.61614,-9.23548 20.382,-10.23422 20.78643,-10.54738 20.82489,-16.12486 0.0391,-5.66917 5.717,-14.0263 11.55207,-17.00313 3.77255,-1.92461 5.52235,-1.99423 7.91968,-0.31507 1.49201,1.04504 1.82173,2.06053 1.82173,5.61063 0,5.24697 -0.86739,6.68211 -18.70267,30.94454 l -12.44487,16.92952 v 18.5213 c 0,11.89908 0.29542,18.52131 0.82623,18.52131 0.45442,0 9.6427,-4.41118 20.41839,-9.80262 z"
       id="path797" />
    <path
       style="fill:#f9f9f9;stroke-width:0.819672"
       d="m 219.67213,487.38596 c -5.69931,-2.0711 -3.71806,-1.00178 -140.163933,-75.64922 L 37.704918,388.8668 31.307289,382.13832 c -6.848414,-7.20258 -10.393111,-13.39992 -11.95886,-20.90817 -1.129593,-5.41676 -1.230043,-176.25977 -0.11046,-187.86949 0.70419,-7.30223 0.914159,-7.93298 3.373539,-10.13403 5.410785,-4.84244 10.36054,-2.82497 60.175377,24.52696 104.561635,57.41186 128.381205,70.60439 132.377045,73.31742 9.61163,6.52592 15.1707,13.54349 18.96541,23.94124 l 2.41705,6.62287 -0.24041,93.52671 c -0.22928,89.19806 -0.3112,93.68864 -1.76997,97.02565 -2.90958,6.65577 -6.95767,8.07156 -14.86388,5.19848 z m -86.51852,-70.94663 c 1.74811,-1.86078 1.85659,-2.54599 1.52468,-9.63115 -0.30617,-6.53566 -0.78825,-8.61293 -3.3668,-14.50755 -5.49686,-12.56592 -13.24787,-23.25315 -19.73223,-27.20714 -1.57846,-0.96251 -4.07442,-1.56395 -6.49814,-1.56583 -3.71682,-0.003 -4.00119,0.15472 -5.122948,2.83945 -4.050915,9.69522 3.680398,30.96129 16.071778,44.20772 7.46137,7.97623 13.2707,9.96579 17.12366,5.8645 z m 2.10855,-51.89015 c 0.40871,-1.77437 0.76482,-1.84426 9.39707,-1.84426 8.8985,0 8.99647,-0.0212 11.91792,-2.58633 5.60707,-4.92308 6.54175,-7.84872 6.50597,-20.36449 -0.0473,-16.55316 -3.21596,-29.30543 -12.27379,-49.39611 -19.82575,-43.97437 -52.576526,-75.76083 -70.390326,-68.31775 -6.581715,2.75002 -9.517365,9.2961 -9.517365,21.22237 v 7.30933 l 17.827869,18.44922 17.827872,18.44921 0.70028,-4.39093 c 0.69291,-4.34468 1.69708,-6.4401 3.08624,-6.4401 1.43418,0 7.61323,6.25226 10.26646,10.38809 3.77323,5.88167 6.38101,14.11781 5.67003,17.90764 -0.54347,2.89698 -0.64251,2.967 -3.58359,2.53368 -1.66357,-0.24511 -6.71319,-0.66414 -11.22139,-0.93117 -4.5082,-0.26703 -9.21107,-0.67777 -10.45082,-0.91274 l -2.254098,-0.42723 0.02754,19.1225 0.02754,19.12251 17.800358,18.36349 17.80035,18.36348 0.20556,-6.88807 c 0.11305,-3.78845 0.39672,-7.718 0.63036,-8.73234 z"
       id="path836" />
    <path
       style="fill:#f9f9f9;stroke-width:0.819672"
       d="m 265.06888,488.15832 c -0.72851,-0.45195 -2.20392,-2.76754 -3.27869,-5.14576 l -1.95412,-4.32404 -0.2217,-93.50538 -0.22169,-93.50539 2.13379,-5.67494 c 4.96156,-13.19556 12.41749,-21.34991 27.51103,-30.0881 16.53178,-9.57082 149.92076,-82.44799 161.92502,-88.46785 8.92711,-4.47673 12.64261,-5.91123 16.04058,-6.19302 4.14409,-0.34366 4.55742,-0.20616 6.5698,2.18542 1.23214,1.46431 2.43069,4.21003 2.81189,6.44169 0.36541,2.13925 0.66439,45.56987 0.66439,96.51249 0,73.67297 -0.21943,93.46145 -1.07256,96.72131 -2.51745,9.6195 -12.60941,22.13009 -22.55657,27.96248 -9.29384,5.44932 -159.01928,87.42348 -168.77165,92.4019 -9.87623,5.04164 -16.45931,6.61489 -19.57952,4.67919 z m 107.88194,-75.05134 c 4.95698,-2.33211 12.91737,-10.85269 16.01203,-17.13886 2.06852,-4.20173 2.76937,-6.83678 3.07179,-11.54915 0.66647,-10.38511 -2.37599,-14.34343 -11.01363,-14.32899 -11.37141,0.019 -23.39536,10.46182 -28.08931,24.39561 -2.88886,8.57543 -1.88481,15.20276 2.86987,18.94279 1.99823,1.57181 3.09539,1.77789 8.09113,1.51975 3.36839,-0.17405 7.14722,-0.94213 9.05812,-1.84115 z m -0.47669,-49.54894 19.59217,-9.80262 0.27832,-8.84492 0.27833,-8.84493 7.44548,-10.2459 c 19.09137,-26.27207 24.59134,-40.11265 23.94053,-60.2459 -0.27312,-8.44922 -0.61837,-10.4888 -2.44867,-14.46554 -2.47736,-5.38264 -7.3073,-10.52381 -12.30497,-13.09787 -5.46205,-2.81324 -18.93867,-3.1831 -26.98052,-0.74047 -24.09123,7.3175 -48.5652,32.31122 -58.36597,59.60553 -2.31702,6.45269 -4.42378,16.97693 -4.80962,24.02622 -0.23549,4.30254 -0.15904,4.49866 1.67583,4.29906 3.06229,-0.3331 36.40968,-17.29597 38.44627,-19.55652 1.19877,-1.33059 1.85057,-3.10689 1.86226,-5.07513 0.0361,-6.0699 5.52361,-14.34512 11.55207,-17.42062 3.77255,-1.92461 5.52235,-1.99423 7.91968,-0.31507 1.49201,1.04504 1.82173,2.06053 1.82173,5.61063 0,5.24584 -0.91538,6.76103 -18.74483,31.0279 l -12.40271,16.88076 v 18.50401 c 0,11.88744 0.29543,18.504 0.82623,18.504 0.45442,0 9.6427,-4.41118 20.41839,-9.80262 z"
       id="path949" />
    <path
       style="fill:#f9f9f9;stroke-width:0.819672"
       d="m 235.153,243.8728 c -5.8511,-1.53412 -14.27274,-5.43084 -25.72677,-11.90387 -3.38115,-1.9108 -40.08197,-22.18928 -81.55738,-45.06331 C 86.393443,164.03159 50.245902,144.00545 47.540984,142.40308 37.83513,136.65343 33.196721,131.84345 33.196721,127.52825 c 0,-2.07003 4.123111,-6.82536 8.528783,-9.83657 3.848241,-2.6302 78.179986,-43.684364 141.471216,-78.135953 36.17812,-19.692989 44.76884,-24.035821 53.93148,-27.263768 l 10.89868,-3.8395468 8.36361,3.0520728 c 4.59999,1.67864 10.57672,4.048118 13.28164,5.265506 8.99755,4.049482 177.15085,96.411319 183.5843,100.837649 5.13284,3.53148 8.62882,7.85488 8.62882,10.67105 0,2.79807 -3.49124,7.13728 -8.52879,10.60029 -1.84605,1.26905 -15.34416,8.94526 -29.9958,17.05824 -58.70115,32.5043 -147.43496,81.29435 -152.34137,83.7645 -11.20779,5.6426 -24.40176,7.17699 -35.86629,4.17108 z m 72.19584,-51.52616 c 7.10764,-3.32607 15.31705,-11.226 18.60392,-17.90259 4.31854,-8.77221 4.23549,-17.70394 -0.21171,-22.76903 -12.73044,-14.49916 -45.06509,3.74681 -46.49721,26.23768 -0.3937,6.18297 0.74443,9.99701 3.87942,13.00052 5.44277,5.21451 14.94419,5.77671 24.22558,1.43342 z m -25.51082,-39.61511 c 10.66532,-11.12061 19.39149,-20.59487 19.39149,-21.05391 0,-0.45903 -2.7664,-3.09511 -6.14754,-5.85795 -3.38115,-2.76283 -6.14754,-5.35675 -6.14754,-5.76425 0,-0.40751 1.13075,-5.63996 2.51278,-11.62768 5.53196,-23.967393 3.45109,-39.239588 -6.77863,-49.750479 -8.15966,-8.383945 -16.79474,-11.699472 -30.57022,-11.737752 -22.11061,-0.06144 -44.12443,10.220735 -62.89706,29.37785 -8.41621,8.588589 -13.86837,16.200125 -18.72529,26.141661 -5.54917,11.35846 -7.47732,19.1151 -7.53893,30.32787 -0.0575,10.4658 1.6694,16.83126 6.49381,23.9365 2.89038,4.25686 9.59846,10.44931 10.76704,9.9394 1.33387,-0.58206 39.52338,-40.74885 39.52338,-41.56974 0,-0.48121 -0.94098,-1.49148 -2.09107,-2.24506 -6.3236,-4.14338 -5.57416,-13.07894 1.70769,-20.36079 3.50346,-3.503454 10.33273,-6.975487 13.74376,-6.987389 2.90343,-0.01016 6.82851,1.992796 7.9268,4.044951 1.53063,2.860028 0.88162,7.596228 -4.04876,29.545608 -2.68254,11.94233 -4.61556,21.96365 -4.29559,22.26962 3.05938,2.92548 26.87193,21.97016 27.26543,21.80621 0.28433,-0.11845 9.24314,-9.31406 19.90845,-20.43467 z"
       id="path988" />
  </g>
  <metadata
     id="metadata1027">
    <rdf:RDF>
      <cc:Work
         rdf:about="">
        <dc:title>rand</dc:title>
      </cc:Work>
    </rdf:RDF>
  </metadata>
</svg>
